<svg width="854" height="537.52555" xmlns="http://www.w3.org/2000/svg">
 <g>
  <title>background</title>
  <rect fill="none" id="canvas_background" height="539.52555" width="856" y="-1" x="-1"/>
 </g>

 <g>
  <title>Layer 1</title>
  <path id="svg_1" fill="#f2f2f2" d="m733.14921,434.54785l-640.8385,0a16.51867,16.51867 0 0 1 -16.5,-16.5l0,-395.15381a12.10184,12.10184 0 0 1 12.08789,-12.08838l649.45349,0a12.31112,12.31112 0 0 1 12.29712,12.29736l0,394.94483a16.51868,16.51868 0 0 1 -16.5,16.5z"/>
  <path id="svg_2" fill="#fff" d="m709.77192,414.18101l-597.24475,0c-8.755,0 -15.87756,-6.66992 -15.87756,-14.86816l0,-344.10498c0,-6.08008 5.278,-11.02686 11.76562,-11.02686l605.27368,0c6.59522,0 11.9607,5.02832 11.9607,11.2085l0,343.92334c0,8.19824 -7.12281,14.86816 -15.87769,14.86816z"/>
  <path id="svg_3" fill="#6c63ff" d="m749.41947,24.95019l-673.84033,0l0,-8.40042a16.57376,16.57376 0 0 1 16.56006,-16.5498l640.72021,0a16.57368,16.57368 0 0 1 16.56006,16.5498l0,8.40042z"/>
  <circle id="svg_4" fill="#fff" r="4.28342" cy="12.5" cx="105.6745"/>
  <circle id="svg_5" fill="#fff" r="4.28342" cy="12.5" cx="121.93331"/>
  <circle id="svg_6" fill="#fff" r="4.28342" cy="12.5" cx="138.19211"/>
  <path id="svg_7" fill="#ccc" d="m393.48224,369.78246l-207.8385,0a17.51989,17.51989 0 0 1 -17.5,-17.5l0,-251.1538a13.10307,13.10307 0 0 1 13.08789,-13.08838l216.45349,0a13.31242,13.31242 0 0 1 13.29712,13.29736l0,250.94482a17.51981,17.51981 0 0 1 -17.5,17.5zm-212.25061,-279.74218a11.10062,11.10062 0 0 0 -11.08789,11.08838l0,251.1538a15.51744,15.51744 0 0 0 15.5,15.5l207.8385,0a15.51752,15.51752 0 0 0 15.5,-15.5l0,-250.94482a11.31,11.31 0 0 0 -11.29712,-11.29736l-216.45349,0z"/>
  <path id="svg_8" fill="#e6e6e6" d="m201.64377,352.28247l175.8385,0a16,16 0 0 0 16,-16l0,-214.54785a16,16 0 0 0 -16,-16l-175.8385,0a16,16 0 0 0 -16,16l0,214.54785a16,16 0 0 0 16,16z"/>
  <path id="svg_9" fill="#fff" d="m338.063,149.50855l-97,0a6.5,6.5 0 0 1 0,-13l97,0a6.5,6.5 0 1 1 0,13z"/>
  <path id="svg_10" fill="#fff" d="m338.063,290.50855l-97,0a6.5,6.5 0 0 1 0,-13l97,0a6.5,6.5 0 1 1 0,13z"/>
  <path id="svg_11" fill="#fff" d="m338.063,321.50855l-97,0a6.5,6.5 0 0 1 0,-13l97,0a6.5,6.5 0 1 1 0,13z"/>
  <circle id="svg_12" fill="#fff" r="39" cy="206.00855" cx="290.06302"/>
  <path id="svg_13" fill="#e6e6e6" d="m540.94709,170.27146l-17.03662,3.59331a1.00015,1.00015 0 0 0 -0.68555,1.43109l1.5874,3.12738l-77.04443,39.10724a0.99991,0.99991 0 1 0 0.90527,1.7832l77.04444,-39.10718l1.5874,3.12763a0.99984,0.99984 0 0 0 1.55957,0.29156l12.957,-11.63159a1,1 0 0 0 -0.87448,-1.72264z"/>
  <path id="svg_14" fill="#e6e6e6" d="m540.94709,267.47788l-17.03662,-3.59327a1.00015,1.00015 0 0 1 -0.68555,-1.43109l1.5874,-3.12738l-77.04443,-39.10724a0.99991,0.99991 0 1 1 0.90527,-1.7832l77.04444,39.10718l1.5874,-3.12763a0.99984,0.99984 0 0 1 1.55957,-0.29156l12.957,11.63159a1,1 0 0 1 -0.87448,1.7226z"/>
  <path id="svg_15" fill="#e6e6e6" d="m597.10236,192.52554a22,22 0 1 1 22,-22a22.02489,22.02489 0 0 1 -22,22zm0,-42a20,20 0 1 0 20,20a20.02276,20.02276 0 0 0 -20,-20z"/>
  <path id="svg_16" fill="#e6e6e6" d="m597.10236,289.52554a22,22 0 1 1 22,-22a22.02489,22.02489 0 0 1 -22,22zm0,-42a20,20 0 1 0 20,20a20.02276,20.02276 0 0 0 -20,-20z"/>
  <path fill="#e6e6e6" d="m595.35855,181.36639a2.93035,2.93035 0 0 1 -1.76292,-0.58589l-0.03154,-0.02366l-6.64008,-5.07944a2.9508,2.9508 0 1 1 3.59066,-4.6836l4.30091,3.29813l10.16327,-13.25911a2.94956,2.94956 0 0 1 4.13542,-0.54624l0.00085,0.00064l-0.06307,0.08759l0.06478,-0.08759a2.95311,2.95311 0 0 1 0.54559,4.13625l-11.95423,15.58867a2.95136,2.95136 0 0 1 -2.347,1.15075l-0.00264,0.0035z" id="a52d33ee-34c0-426d-bf77-f0f4463d7cbc"/>
  <path id="svg_17" fill="#e6e6e6" d="m587.55642,277.07149a1.49992,1.49992 0 0 1 0,-2.12132l16.97058,-16.97057a1.5,1.5 0 0 1 2.12132,2.12132l-16.97056,16.97057a1.49993,1.49993 0 0 1 -2.12134,0z"/>
  <path id="svg_18" fill="#e6e6e6" d="m605.6483,277.07149a1.49991,1.49991 0 0 0 0,-2.12132l-16.97056,-16.97057a1.5,1.5 0 0 0 -2.12132,2.12132l16.97058,16.97057a1.49993,1.49993 0 0 0 2.1213,0z"/>
  <path id="svg_19" fill="#6c63ff" d="m635.09016,219.67886a1.3743,1.3743 0 0 1 -0.19434,-0.01416a1.32092,1.32092 0 0 1 -0.874,-0.521l-8.17482,-10.96193a0.32954,0.32954 0 0 0 -0.56714,0.0669l-4.19165,9.80664a1.32949,1.32949 0 0 1 -2.50976,-0.18994l-8.36426,-32.375a1.32945,1.32945 0 0 1 1.97339,-1.47119l28.64042,17.2549a1.32941,1.32941 0 0 1 -0.53418,2.45947l-10.59136,1.21822a0.32961,0.32961 0 0 0 -0.22656,0.52442l8.17456,10.96142a1.33157,1.33157 0 0 1 -0.27124,1.86084l-1.49707,1.11621a1.32045,1.32045 0 0 1 -0.79199,0.2642z"/>
  <path id="svg_20" fill="#6c63ff" d="m681.60236,243.52554l-36,0a10,10 0 0 1 0,-20l36,0a10,10 0 0 1 0,20z"/>
  <path id="svg_21" fill="#3f3d56" d="m245.32258,174.4147l-1.49707,-1.11621a1.33157,1.33157 0 0 1 -0.27124,-1.86084l8.17456,-10.96142a0.3296,0.3296 0 0 0 -0.22657,-0.52442l-10.5913,-1.21826a1.32941,1.32941 0 0 1 -0.53418,-2.45947l28.64038,-17.25488a1.32945,1.32945 0 0 1 1.97339,1.47119l-8.36426,32.375a1.3295,1.3295 0 0 1 -2.50977,0.18994l-4.19165,-9.80664a0.32954,0.32954 0 0 0 -0.56714,-0.0669l-8.1748,10.96192a1.321,1.321 0 0 1 -0.874,0.521a1.37452,1.37452 0 0 1 -0.19434,0.01416a1.32043,1.32043 0 0 1 -0.79201,-0.26417z"/>
  <path id="svg_22" fill="#3f3d56" d="m189.60236,188.52554a10.0113,10.0113 0 0 1 10,-10l36,0a10,10 0 0 1 0,20l-36,0a10.0113,10.0113 0 0 1 -10,-10z"/>
  <path id="svg_23" fill="#a0616a" d="m723.3512,369.79618a10.05577,10.05577 0 0 0 -0.69264,-15.40376l11.17984,-33.941l-17.92249,4.85985l-7.86885,31.48587a10.11027,10.11027 0 0 0 15.30414,12.999l0,0.00004z"/>
  <path id="svg_24" fill="#a0616a" d="m830.85353,367.79618a10.05576,10.05576 0 0 1 0.69263,-15.40376l-11.17984,-33.941l17.92249,4.85985l7.86885,31.48587a10.11027,10.11027 0 0 1 -15.30413,12.999l0,0.00004z"/>
  <circle id="svg_25" fill="#a0616a" r="24.56103" cy="173.68835" cx="778.32283"/>
  <polygon id="svg_26" fill="#a0616a" points="755.138 525.359 742.879 525.359 737.046 478.071 755.141 478.071 755.138 525.359"/>
  <path id="svg_27" fill="#2f2e41" d="m758.26489,537.24317l-39.53052,-0.00146l0,-0.5a15.38607,15.38607 0 0 1 15.38648,-15.38623l0.001,0l24.14379,0.001l-0.00075,15.88669z"/>
  <polygon id="svg_28" fill="#a0616a" points="797.138 525.359 784.879 525.359 779.046 478.071 797.141 478.071 797.138 525.359"/>
  <path id="svg_29" fill="#2f2e41" d="m800.26489,537.24317l-39.53052,-0.00146l0,-0.5a15.38607,15.38607 0 0 1 15.38648,-15.38623l0.001,0l24.14379,0.001l-0.00075,15.88669z"/>
  <path id="svg_30" fill="#2f2e41" d="m754.93806,511.53728l-14.40064,-0.04a4.43823,4.43823 0 0 1 -3.45923,-1.04a4.50342,4.50342 0 0 1 -1.57837,-3.32031l1.65894,-159.376l66.45605,-0.66407l-3.855,158.86524a4.4738,4.4738 0 0 1 -4.49853,4.3916l-14.84959,0a4.48624,4.48624 0 0 1 -4.49707,-4.33106l-3.59375,-95.34961a0.47536,0.47536 0 0 0 -0.49243,-0.48144a0.492,0.492 0 0 0 -0.50611,0.4668l-12.50533,96.75385a4.50419,4.50419 0 0 1 -3.87894,4.125z"/>
  <path id="svg_31" fill="#3f3d56" d="m767.33674,358.61834c-9.81909,0 -20.19605,-1.75391 -29.56275,-6.88282a4.539,4.539 0 0 1 -2.36206,-3.88671l-1.30957,-72.73829l-1.8435,-15.56445a47.41231,47.41231 0 0 1 23.59839,-46.80957l0.85156,-0.48535l2.39819,-5.59668a2.47892,2.47892 0 0 1 2.36914,-1.51367l32.24268,0.9209a2.51011,2.51011 0 0 1 2.30029,1.709l1.49756,4.49316a47.19358,47.19358 0 0 1 23.13867,48.17872l-13.21634,87.46873a4.49718,4.49718 0 0 1 -2.83984,3.53027c-5.8486,2.22168 -20.76438,7.17676 -37.26242,7.17676z"/>
  <path id="svg_32" fill="#3f3d56" d="m830.34431,348.75506a2.51078,2.51078 0 0 1 -2.33619,-1.59864l-16.37207,-42.374l-13.38891,-66.01665a13.00985,13.00985 0 0 1 5.3247,-13.27344l0,0a13.0189,13.0189 0 0 1 20.27686,8.54688l3.74683,22.48046l18.5813,86.05762a2.5104,2.5104 0 0 1 -1.87134,2.96l-13.39283,3.15137a2.46223,2.46223 0 0 1 -0.56835,0.0664z"/>
  <path id="svg_33" fill="#3f3d56" d="m724.86042,348.75506a2.46645,2.46645 0 0 1 -0.56885,-0.06641l-13.39257,-3.15137a2.51042,2.51042 0 0 1 -1.87109,-2.96l18.58569,-86.08105l3.74243,-22.457a13.0189,13.0189 0 0 1 20.27686,-8.54688l0,0a13.00987,13.00987 0 0 1 5.32471,13.27344l-13.36524,65.93554l-16.39576,42.45607a2.51131,2.51131 0 0 1 -2.33618,1.59766z"/>
  <path id="svg_34" fill="#2f2e41" d="m797.43992,197.11891c-2.274,1.30843 -11.26246,2.176 -11.90278,-0.36827l-0.01372,-0.0559c-0.44575,-1.86411 -0.0756,-3.81068 0.05233,-5.72308s-0.05925,-4.01326 -1.36175,-5.41937c-2.428,-2.62114 -6.74755,-1.23165 -10.25843,-1.89439a8.6643,8.6643 0 0 1 -6.74007,-9.25292c0.05,-0.3975 0.12841,-0.79544 0.21633,-1.19315a6.67288,6.67288 0 0 0 -6.92675,-8.08129c-3.5481,0.20288 -7.378,1.27789 -10.31357,-1.35012c-2.2701,-2.03223 -2.824,-7.32236 -1.82654,-10.20133c1.67623,-4.83831 12.4137,-7.37125 17.10186,-8.76367a40.62028,40.62028 0 0 1 34.43036,5.64954c2.96118,2.08724 5.72661,4.70984 6.98873,8.10576s0.65322,7.68029 -2.19278,9.92206a18.332,18.332 0 0 1 4.24619,17.80643c-1.40569,4.52945 -8.11445,8.87203 -11.49941,10.8197z"/>
  <path id="svg_35" fill="#ffb8b8" d="m113.56884,333.10929a10.05578,10.05578 0 0 1 -8.66684,-12.7531l-29.27422,-20.49388l17.26536,-6.83675l25.15233,20.50948a10.11027,10.11027 0 0 1 -4.47663,19.57425z"/>
  <path id="svg_36" fill="#3f3d56" d="m97.67144,317.53108l-26.511,-15.376a22.05582,22.05582 0 0 1 -10.63719,-14.23731a21.1392,21.1392 0 0 1 3.19629,-16.48632l21.94629,-32.3711a10.96935,10.96935 0 0 1 18.979,10.88086l-17.137,35.90527l17.36035,15.28614a4.50608,4.50608 0 0 1 1.42529,4.32519l-1.96533,9.127a4.4527,4.4527 0 0 1 -2.57812,3.168a4.45563,4.45563 0 0 1 -4.07862,-0.22168l0.00004,-0.00005z"/>
  <path id="svg_37" fill="#ffb8b8" d="m217.79478,245.59977a10.05577,10.05577 0 0 1 -14.26293,5.85872l-26.07641,24.43359l-3.13974,-18.30234l25.24395,-20.39661a10.11028,10.11028 0 0 1 18.23513,8.40664z"/>
  <circle id="svg_38" fill="#ffb8b8" r="24.56103" cy="188.96394" cx="110.99155"/>
  <polygon id="svg_39" fill="#ffb8b8" points="183.308 524.961 195.059 521.465 187.165 474.477 169.822 479.637 183.308 524.961"/>
  <path id="svg_40" fill="#2f2e41" d="m179.16946,522.01622l23.14116,-6.88547l0.00094,-0.00028a15.38606,15.38606 0 0 1 19.135,10.36005l0.14257,0.47924l-37.88892,11.27341l-4.53075,-15.22695z"/>
  <polygon id="svg_41" fill="#ffb8b8" points="54.57 524.359 66.829 524.359 72.662 477.071 60.568 477.071 54.57 524.359"/>
  <path id="svg_42" fill="#2f2e41" d="m51.44247,520.35645l24.14379,-0.001l0.001,0a15.38605,15.38605 0 0 1 15.38648,15.38623l0,0.5l-39.53052,0.00146l-0.00075,-15.88669z"/>
  <path id="svg_43" fill="#2f2e41" d="m174.53692,508.03597l-45.98608,-132.32715a1.47051,1.47051 0 0 0 -1.38233,-1.00684a1.433,1.433 0 0 0 -1.427,0.94239l-52.989,132.46777a4.47877,4.47877 0 0 1 -4.39649,2.82324l-13.83056,-0.6709a4.49968,4.49968 0 0 1 -4.14331,-5.60156l50.123,-197.54394l50.28711,-4.10352l0.32837,0.47363c0.27173,0.39258 27.178,40.00293 27.16138,108.38965l17.241,93.86621a4.5006,4.5006 0 0 1 -4.42578,5.31348l-12.30958,0a4.50394,4.50394 0 0 1 -4.25073,-3.02246z"/>
  <path id="svg_44" fill="#3f3d56" d="m82.58087,262.31233a31.28947,31.28947 0 0 1 5.35449,-30.16894a30.90084,30.90084 0 0 1 28.08594,-11.24024q0.62512,0.08351 1.24243,0.16895l0,0a31.273,31.273 0 0 1 26.72168,26.21484l9.39136,59.7295l-53.54053,4.041l-0.38428,0.02832l-16.87109,-48.77343z"/>
  <path id="svg_45" fill="#3f3d56" d="m160.71,286.54866a21.13723,21.13723 0 0 1 -15.342,-7.38867l-25.32666,-29.35937a11.32169,11.32169 0 0 1 -2.865,-8.03028a10.85875,10.85875 0 0 1 4.09936,-7.9541a10.98307,10.98307 0 0 1 13.99121,0.23633l30.20386,25.88574l18.582,-12.92676a4.49564,4.49564 0 0 1 4.6023,-0.32031l8.89355,4.502a4.50049,4.50049 0 0 1 1.13818,7.208l-22.113,21.96192a21.17422,21.17422 0 0 1 -15.01123,6.20117q-0.42482,-0.00004 -0.85257,-0.01567z"/>
  <path id="svg_46" fill="#2f2e41" d="m129.66841,182.82988a32.00187,32.00187 0 0 0 9.55439,2.10248c3.29273,0.04118 6.793,-1.09945 8.59486,-3.60725a8.98567,8.98567 0 0 0 0.9889,-7.43916a17.6705,17.6705 0 0 0 -9.75235,-11.45715a20.76073,20.76073 0 0 0 -15.9175,-0.51234c-1.848,-5.61765 -8.8082,-8.675 -15.25043,-8.84795c-13.1597,-0.35318 -24.92634,8.61993 -30.64391,19.40963s-6.5529,23.123 -6.9084,35.09692c-0.0867,2.92023 -0.123,5.96521 1.26027,8.60151c2.05983,3.92569 6.7406,6.03983 11.15249,7.71631a209.368,209.368 0 0 0 35.66714,10.02594c-5.83957,-3.73249 -7.6918,-11.76636 -3.993,-17.31923c1.80971,-2.71683 4.78123,-4.97867 5.26207,-8.12523c0.57655,-3.77291 -2.64253,-7.07235 -3.83335,-10.72421a10.89764,10.89764 0 0 1 3.1091,-11.25a13.66643,13.66643 0 0 1 12.3377,-2.9257"/>
  <path id="svg_47" fill="#ccc" d="m249,537.52554l-248,0a1,1 0 0 1 0,-2l248,0a1,1 0 0 1 0,2z"/>
  <path id="svg_48" fill="#ccc" d="m853,537.52554l-176,0a1,1 0 0 1 0,-2l176,0a1,1 0 0 1 0,2z"/>
 </g>
 <g>
  <title>background</title>
  <text fill="#000000" stroke="#000" stroke-width="null" stroke-dasharray="null" stroke-opacity="null" fill-opacity="null" x="231.5" y="262.26278" id="svg_52" font-size="24" font-family="'Montserrat'" text-anchor="start" xml:space="preserve">Trust ExBeyond to deliver Beyond</text>
  <text fill="#000000" stroke="#ff0000" stroke-width="null" stroke-dasharray="null" fill-opacity="null" opacity="0.9" x="421.5" y="296.26278" id="svg_53" font-size="24" font-family="'Montserrat'" text-anchor="start" xml:space="preserve">Your expectations</text>
 </g>
</svg>